<svg width="52" height="52" viewBox="0 0 52 52" fill="none" xmlns="http://www.w3.org/2000/svg">
<path fill-rule="evenodd" clip-rule="evenodd" d="M26 52C40.3594 52 52 40.3594 52 26C52 11.6406 40.3594 0 26 0C11.6406 0 0 11.6406 0 26C0 40.3594 11.6406 52 26 52ZM16 15.4478C16 14.0579 17.0555 13 18.6689 13C20.2827 13 21.2742 14.0579 21.3055 15.4478C21.3055 16.8082 20.2827 17.8967 18.6376 17.8967H18.607C17.0249 17.8967 16 16.8082 16 15.4478ZM38 34V25.8741C38 21.5226 35.6737 19.4975 32.5707 19.4975C30.0646 19.4975 28.9468 20.8747 28.32 21.8381V19.8302H23.603C23.6663 21.1593 23.603 33.9996 23.603 33.9996H28.3197V26.0859C28.3197 25.6611 28.3517 25.2406 28.4759 24.9377C28.8177 24.0903 29.5919 23.2151 30.8951 23.2151C32.6027 23.2151 33.2837 24.515 33.2837 26.4186V34H38ZM28.32 21.8381V21.8845H28.2887C28.2932 21.8765 28.2991 21.8684 28.305 21.8601C28.3103 21.8529 28.3156 21.8455 28.32 21.8381ZM16.2803 34H20.9953V19.8302H16.2803V34Z" fill="#A4C15F"/>
</svg>
