<svg width="52" height="52" viewBox="0 0 52 52" fill="none" xmlns="http://www.w3.org/2000/svg">
<path fill-rule="evenodd" clip-rule="evenodd" d="M26 52C40.3594 52 52 40.3594 52 26C52 11.6406 40.3594 0 26 0C11.6406 0 0 11.6406 0 26C0 40.3594 11.6406 52 26 52ZM36.0539 19.3199C37.0913 19.1926 38.0804 18.9075 39 18.4861C38.3126 19.5492 37.4432 20.4827 36.4403 21.2299C36.4502 21.4569 36.4552 21.6858 36.4552 21.9155C36.4552 28.9218 31.2959 37 21.8617 37C18.9653 37 16.2687 36.1227 14 34.6179C14.4005 34.6673 14.8098 34.6922 15.2229 34.6922C17.6266 34.6922 19.8378 33.845 21.5936 32.4228C19.3486 32.3797 17.4548 30.8469 16.8023 28.7411C17.1152 28.8028 17.4361 28.8356 17.7673 28.8356C18.2344 28.8356 18.6884 28.7712 19.1183 28.6494C16.7724 28.1627 15.0037 26.0202 15.0037 23.4515C15.0037 23.4294 15.0037 23.4068 15.0041 23.3843C15.6953 23.7824 16.4867 24.0208 17.3271 24.0481C15.9516 23.0977 15.0454 21.4743 15.0454 19.6354C15.0454 18.664 15.2986 17.7527 15.74 16.9698C18.2699 20.1783 22.0495 22.2887 26.3122 22.5097C26.2242 22.1215 26.1787 21.717 26.1787 21.3015C26.1787 18.3742 28.4757 16 31.3078 16C32.7839 16 34.1169 16.6437 35.0525 17.6736C36.2203 17.436 37.3185 16.9951 38.3096 16.3875C37.9259 17.6262 37.1131 18.664 36.0539 19.3199Z" fill="#A4C15F"/>
</svg>
