<svg width="62" height="62" viewBox="0 0 62 62" fill="none" xmlns="http://www.w3.org/2000/svg">
<path fill-rule="evenodd" clip-rule="evenodd" d="M61.256 30.628C61.256 47.5228 47.5105 61.256 30.628 61.256C13.7332 61.256 0 47.5105 0 30.628C0 13.7332 13.7332 0 30.628 0C47.5105 0 61.256 13.7332 61.256 30.628ZM46.2014 22.0571C47.2017 23.8108 48.3626 26.0585 48.3626 29.3066C48.3626 31.3674 47.6359 33.7293 46.6583 36.9063C46.5697 37.1944 46.479 37.4891 46.3866 37.791L43.7684 46.5471L34.2712 18.3027C35.8521 18.2162 37.2723 18.0557 37.2723 18.0557C38.6802 17.8951 38.5196 15.808 37.0994 15.8944C37.0994 15.8944 32.8386 16.2279 30.097 16.2279C27.5158 16.2279 23.181 15.8944 23.181 15.8944C21.773 15.808 21.6001 17.9692 23.0204 18.0557C23.0204 18.0557 24.3542 18.2162 25.7744 18.3027L29.8623 29.5165L24.1072 46.7571L14.5359 18.3027C16.1167 18.2162 17.537 18.0557 17.537 18.0557C18.9449 17.8951 18.7843 15.808 17.3641 15.8944C17.3641 15.8944 13.1033 16.2279 10.3616 16.2279C9.86765 16.2279 9.2872 16.2155 8.6697 16.1908C13.375 9.05255 21.452 4.3472 30.628 4.3472C37.4699 4.3472 43.6943 6.9654 48.375 11.2508L48.3413 11.2475L48.3413 11.2475C48.2311 11.2363 48.1301 11.2262 48.0292 11.2262C45.448 11.2262 43.6202 13.4739 43.6202 15.8944C43.6202 17.8992 44.6935 19.6277 45.9134 21.5924L45.9145 21.5942C46.0094 21.747 46.1051 21.9012 46.2014 22.0571ZM19.1672 54.2659L6.63195 19.9329C5.17465 23.2057 4.35955 26.8118 4.35955 30.628C4.35955 41.0267 10.3987 50.0175 19.1672 54.2659ZM31.0849 32.9251L23.2057 55.8344C25.5645 56.5259 28.0469 56.9088 30.628 56.9088C33.6908 56.9088 36.6178 56.3777 39.3471 55.4144C39.273 55.3033 39.2113 55.1798 39.1618 55.0563L31.0849 32.9251ZM53.8584 20.7233C53.8584 19.7477 53.7966 18.8584 53.6855 18.0187C55.7355 21.7607 56.8965 26.0585 56.8965 30.628C56.8965 40.3228 51.6477 48.7825 43.8302 53.3396L51.8577 30.134C53.3643 26.3796 53.8584 23.3909 53.8584 20.7233ZM30.628 1.4079C46.7324 1.4079 59.8481 14.5112 59.8481 30.628C59.8481 46.7448 46.7448 59.8481 30.628 59.8481C14.5236 59.8481 1.4079 46.7448 1.4079 30.628C1.4079 14.5112 14.5112 1.4079 30.628 1.4079Z" fill="#3F3D56"/>
</svg>
