<svg width="53" height="60" viewBox="0 0 53 60" fill="none" xmlns="http://www.w3.org/2000/svg">
<path fill-rule="evenodd" clip-rule="evenodd" d="M33.1729 5.5032C33.5183 6.18287 33.8077 6.88962 34.0381 7.6164C35.1433 7.2804 35.8153 7.0884 35.8153 7.0884C35.9903 7.06308 36.1666 7.04705 36.3433 7.0404V59.64L0.0336914 53.3424C0.0336914 53.3424 4.44969 19.524 4.59369 18.324C4.78449 16.74 4.83369 16.692 6.51369 16.164C6.56169 16.116 8.86689 15.3948 12.1813 14.3868C12.5197 11.8404 13.7665 8.574 15.3997 5.9796C17.7097 2.28 20.5897 0.216003 23.4697 0.120003C24.9601 0.0756033 26.2081 0.555603 27.1681 1.608C27.1921 1.656 27.2281 1.692 27.2641 1.72799L27.2641 1.728L27.2641 1.72801C27.3001 1.76401 27.3361 1.80001 27.3601 1.848C27.5172 1.81054 27.6787 1.79439 27.8401 1.8C30.0505 1.8 31.9201 3.102 33.1729 5.5032ZM45.4705 11.172C45.739 11.1843 45.9607 11.3859 45.9985 11.652C46.0465 11.94 52.5313 55.8 52.5313 55.8L37.4485 59.544V7.6164C38.4097 8.5776 41.0029 11.076 41.0029 11.076C41.0029 11.076 45.2305 11.172 45.4705 11.172ZM27.4093 9.6828C26.3885 9.98904 25.3124 10.3224 24.218 10.6615L24.2178 10.6615L24.2167 10.6619C23.253 10.9604 22.2752 11.2633 21.3085 11.556C21.8845 9.2976 23.0377 7.0404 24.3829 5.556C24.9109 5.028 25.6321 4.4028 26.4481 4.0188C27.2653 5.7432 27.4573 8.0976 27.4093 9.6828ZM25.2001 2.52C24.6734 2.22153 24.0748 2.07373 23.4697 2.0928C19.0501 2.1888 15.1597 9.1536 14.1085 13.7604C15.6889 13.2804 17.4181 12.7524 19.1485 12.2232C19.7245 9.2892 21.1177 6.2196 22.9429 4.2492C23.6629 3.5292 24.4321 2.904 25.2001 2.52ZM17.8981 28.5132C17.9739 29.7258 19.2836 30.5648 20.8713 31.5817C23.3073 33.1421 26.3975 35.1214 26.6881 39.5124C27.0241 45.2292 23.6617 49.1196 18.8101 49.4088C12.9505 49.7928 9.73209 46.3344 9.73209 46.3344L10.9801 41.0544C10.9801 41.0544 14.1985 43.5048 16.7929 43.3128C18.4729 43.2168 19.0993 41.8236 19.0501 40.8624C18.9448 39.0922 17.6095 38.145 16.1075 37.0793C14.1861 35.7163 11.9917 34.1595 11.7493 30.4392C11.3653 24.8664 15.0157 19.2468 23.0857 18.7176C26.2057 18.5256 27.7933 19.2948 27.7933 19.2948L25.9681 26.2068C25.9681 26.2068 23.9029 25.2468 21.4525 25.4388C17.8981 25.68 17.8501 27.936 17.8981 28.5132ZM28.4653 3.87C29.1385 5.5992 29.3305 7.6656 29.3305 9.1056C30.3873 8.7696 31.3481 8.4816 32.2129 8.2416C31.7317 6.75 30.6757 4.302 28.4653 3.87Z" fill="#3F3D56"/>
</svg>
