<svg width="63" height="47" viewBox="0 0 63 47" fill="none" xmlns="http://www.w3.org/2000/svg">
<path fill-rule="evenodd" clip-rule="evenodd" d="M41.791 7.97555C43.0615 3.25091 47.1497 0.101562 52.031 0.101562C58.2624 0.101562 62.7471 4.40392 62.67 10.3183C62.67 12.417 62.5969 12.6149 57.8929 25.346C56.6655 28.6678 55.1229 32.8429 53.184 38.1276C50.4447 45.5413 44.889 46.6552 41.8326 46.6552C37.0297 46.6552 33.2598 44.2733 31.3148 40.0101C29.3699 44.2353 25.5987 46.6172 20.797 46.6172C17.7407 46.6172 12.1837 45.5426 9.44561 38.1288C7.69509 33.3272 6.26793 29.4461 5.10461 26.2826C0.330777 13.3005 0 12.401 0 9.55084C0 4.2497 4.72342 0.101562 10.7149 0.101562C15.6366 0.101562 19.6844 3.25091 20.9549 7.97555C23.2168 0.870234 28.9721 0.101562 31.3932 0.101562C33.7738 0.101562 39.5682 0.86901 41.791 7.97555ZM47.2293 35.7506L55.255 14.1543C55.3777 13.7607 55.5035 13.3977 55.6214 13.0573C55.9142 12.2122 56.1586 11.5068 56.1865 10.8201C56.1865 8.07959 54.2085 6.44923 51.4949 6.44923C49.2072 6.44923 47.5793 7.89355 47.075 10.0049L41.6858 27.1189H41.5695L36.1031 10.3758C35.3663 7.93149 34.0872 6.44923 31.3344 6.44923C28.5816 6.44923 27.3025 7.96821 26.5657 10.3758L21.0993 27.1189H20.983L15.5938 10.0049C15.0895 7.89355 13.4616 6.44923 11.1739 6.44923C8.42112 6.44923 6.4823 8.04287 6.4823 10.0429C6.4823 11.3391 6.7932 12.4505 7.45171 14.2657L15.4004 35.7138C16.3686 38.343 17.9977 40.2696 21.0601 40.2696C23.89 40.2696 25.5963 38.7885 26.4482 36.1569L31.2561 21.7847H31.3723L36.1802 36.1569C36.9942 38.7873 38.7004 40.3063 41.5695 40.3063C44.6319 40.3063 46.2599 38.3809 47.2293 35.7506Z" fill="#3F3D56"/>
</svg>
